<svg width="10" height="6" viewBox="0 0 10 6" fill="none" xmlns="http://www.w3.org/2000/svg">
<path d="M5.3325 5.84492L9.97747 0.162605C9.9897 0.147757 9.99731 0.129913 9.99941 0.111122C10.0015 0.0923312 9.99801 0.073356 9.98934 0.0563753C9.98066 0.0393947 9.96714 0.0250976 9.95034 0.0151257C9.93354 0.00515376 9.91414 -8.8506e-05 9.89436 1.12583e-06L8.8746 1.08125e-06C8.80996 1.07843e-06 8.74796 0.0289926 8.70838 0.0768914L5.00006 4.61468L1.29173 0.0768911C1.25215 0.0277317 1.19015 7.45356e-07 1.12551 7.4253e-07L0.105751 6.97955e-07C0.0173635 6.94092e-07 -0.0314474 0.0970588 0.0226402 0.162605L4.66761 5.84492C4.70704 5.89322 4.75748 5.93229 4.81508 5.95916C4.87269 5.98603 4.93595 6 5.00006 6C5.06416 6 5.12742 5.98603 5.18503 5.95916C5.24263 5.93229 5.29307 5.89322 5.3325 5.84492Z" fill="#616161"/>
</svg>
