<svg width="7" height="12" viewBox="0 0 7 12" fill="current">
<path d="M0.60223 5.66233L6.63973 0.9467C6.65551 0.93428 6.67447 0.926562 6.69443 0.924431C6.7144 0.9223 6.73456 0.925844 6.7526 0.934655C6.77064 0.943466 6.78583 0.957188 6.79643 0.974243C6.80702 0.991299 6.81259 1.011 6.8125 1.03108V2.06634C6.8125 2.13197 6.7817 2.19491 6.7308 2.23509L1.90937 5.99983L6.7308 9.76456C6.78303 9.80474 6.8125 9.86768 6.8125 9.93331V10.9686C6.8125 11.0583 6.70937 11.1079 6.63973 11.0529L0.60223 6.33733C0.550915 6.2973 0.509404 6.2461 0.480852 6.18761C0.4523 6.12913 0.437459 6.06491 0.437459 5.99983C0.437459 5.93474 0.4523 5.87052 0.480852 5.81204C0.509404 5.75356 0.550915 5.70235 0.60223 5.66233Z" fill="black" fill-opacity="0.85"/>
</svg>
