<svg width="12" height="12" viewBox="0 0 12 12" fill="none" xmlns="http://www.w3.org/2000/svg">
<path fill-rule="evenodd" clip-rule="evenodd" d="M7.04597 1.10188C6.71668 0.0884387 5.28294 0.0884342 4.95365 1.10188L4.08739 3.76794C4.074 3.80914 4.03561 3.83704 3.99229 3.83704H1.18902C0.123429 3.83704 -0.319627 5.20061 0.542459 5.82696L2.81035 7.47467C2.8454 7.50014 2.86006 7.54527 2.84667 7.58648L1.98042 10.2525C1.65113 11.266 2.81106 12.1087 3.67314 11.4824L5.94103 9.83466C5.97608 9.80919 6.02354 9.80919 6.05859 9.83466L8.32647 11.4824C9.18856 12.1087 10.3485 11.266 10.0192 10.2525L9.15294 7.58648C9.13956 7.54527 9.15422 7.50014 9.18927 7.47467L11.4572 5.82696C12.3192 5.20061 11.8762 3.83704 10.8106 3.83704H8.00733C7.96401 3.83704 7.92561 3.80914 7.91223 3.76794L7.04597 1.10188Z" fill="#FCC23A"/>
</svg>
