<svg width="110" height="40" viewBox="0 0 110 40" fill="none" xmlns="http://www.w3.org/2000/svg">
<path d="M49.7 12.92H45.6V11.2H42.94V12.92H38.86V15H49.7V12.92ZM42.28 18.96C42.28 18.04 43.08 17.58 44.28 17.58C45.46 17.58 46.28 18.04 46.28 18.96C46.28 19.9 45.46 20.36 44.28 20.36C43.08 20.36 42.28 19.9 42.28 18.96ZM48.8 18.96C48.8 16.96 46.94 15.58 44.28 15.58C41.64 15.58 39.76 16.96 39.76 18.96C39.76 20.98 41.64 22.36 44.28 22.36C46.94 22.36 48.8 20.98 48.8 18.96ZM41.08 25.72H50.72V29.74H53.36V23.6H41.08V25.72ZM55.8 16.04H53.36V11.3H50.72V22.84H53.36V18.22H55.8V16.04ZM72.4784 15.78C68.3384 15.38 66.3384 13.52 66.3384 11.74V11.4H63.6184V11.74C63.6184 13.52 61.6184 15.38 57.4784 15.78L58.3384 17.76C61.5184 17.42 63.8184 16.22 64.9784 14.54C66.1384 16.22 68.4184 17.42 71.5984 17.76L72.4784 15.78ZM73.2984 20.6V18.52H56.6584V20.6H63.6384V21.78H58.5584V23.74H68.6784V24.74H58.5784V29.58H71.7584V27.6H61.1984V26.56H71.2784V21.78H66.2784V20.6H73.2984ZM84.4569 15.74V17.88H87.2169V22.26H89.8569V11.3H87.2169V15.74H84.4569ZM85.5569 19.7C82.7569 18.78 81.4769 16.62 81.3969 14.52H84.9769V12.4H75.0769V14.52H78.6969C78.6169 16.82 77.2769 19.16 74.3569 20.18L75.6969 22.26C77.8369 21.54 79.2969 20.04 80.0969 18.18C80.8969 19.8 82.2769 21.1 84.2769 21.76L85.5569 19.7ZM83.6369 27.74C81.2169 27.74 79.9569 27.24 79.9569 26.2C79.9569 25.16 81.2169 24.66 83.6369 24.66C86.0369 24.66 87.2969 25.16 87.2969 26.2C87.2969 27.24 86.0369 27.74 83.6369 27.74ZM83.6369 22.66C79.7169 22.66 77.3169 23.96 77.3169 26.2C77.3169 28.44 79.7169 29.74 83.6369 29.74C87.5369 29.74 89.9369 28.44 89.9369 26.2C89.9369 23.96 87.5369 22.66 83.6369 22.66ZM96.6353 17.38H104.515V19.96H96.6353V17.38ZM101.895 25.44V22.06H107.115V12.44H104.515V15.3H96.6353V12.44H94.0153V22.06H99.2553V25.44H92.2553V27.58H108.935V25.44H101.895Z" fill="#212121"/>
<path fill-rule="evenodd" clip-rule="evenodd" d="M15.5349 11.0664H5.2027L5.2027 21.3987H3.13625V11.0664C3.13625 9.92518 4.06143 9 5.2027 9H27.9336C29.0749 9 30 9.92518 30 11.0664V28.6312C30 29.7725 29.0749 30.6977 27.9336 30.6977H15.5349V28.6312H15.5349V11.0664ZM17.6014 11.0664V28.6312H27.9336V11.0664H17.6014ZM25.8672 14.1662H19.6678V16.2327H25.8672V14.1662ZM5.20267 23.9818H9.85217H11.9186V26.0483L11.9186 30.6978H9.85217L9.85217 27.5202L4.4612 32.9111L3 31.4499L8.40166 26.0483H5.20267V23.9818ZM25.8672 18.8156H19.6678V20.8821H25.8672V18.8156ZM19.6678 23.465H25.8672V25.5315H19.6678V23.465Z" fill="#FE7C0B"/>
</svg>
