<svg width="77" height="77" viewBox="0 0 77 77" fill="none">
<path fill-rule="evenodd" clip-rule="evenodd" d="M37.0336 15.2809H10.629L10.629 41.6855H5.34812V15.2809C5.34812 12.3643 7.71247 10 10.629 10H68.7191C71.6357 10 74.0001 12.3643 74.0001 15.2809V60.1687C74.0001 63.0853 71.6357 65.4496 68.7191 65.4496H42.3146V65.4497H37.0336V65.4496H37.0336V60.1687H37.0336V15.2809ZM42.3146 15.2809V60.1687H68.7191V15.2809H42.3146ZM63.4381 23.2023H47.5954V28.4832H63.4381V23.2023ZM10.629 48.2867H22.5111H27.792H27.792V65.4497L22.5111 65.4497L22.5111 57.3291L8.73417 71.1061L5 67.3719L18.8043 53.5676H10.629V48.2867ZM63.4381 35.0844H47.5954V40.3653H63.4381V35.0844ZM47.5954 46.9665H63.4381V52.2474H47.5954V46.9665Z" fill="#FE7C0B"/>
</svg>
