<svg width="12" height="12" viewBox="0 0 12 12" fill="none">
<path fill-rule="evenodd" clip-rule="evenodd" d="M4.95365 1.10188C5.28294 0.0884342 6.71668 0.0884387 7.04597 1.10188L7.91223 3.76794C7.92561 3.80914 7.96401 3.83704 8.00733 3.83704H10.8106C11.8762 3.83704 12.3192 5.20061 11.4572 5.82696L9.18927 7.47467C9.15422 7.50014 9.13956 7.54527 9.15294 7.58648L10.0192 10.2525C10.3485 11.266 9.18856 12.1087 8.32647 11.4824L6.05859 9.83466C6.02354 9.80919 5.97608 9.80919 5.94103 9.83466L3.67314 11.4824C2.81106 12.1087 1.65113 11.266 1.98042 10.2525L2.84667 7.58648C2.86006 7.54527 2.8454 7.50014 2.81035 7.47467L0.542459 5.82696C-0.319627 5.20061 0.123429 3.83704 1.18902 3.83704H3.99229C4.03561 3.83704 4.074 3.80914 4.08739 3.76794L4.95365 1.10188ZM5.93961 1.35861C5.92924 1.36567 5.9152 1.37858 5.9047 1.41089L5.03845 4.07696C4.89119 4.53018 4.46883 4.83704 3.99229 4.83704H1.18902C1.15504 4.83704 1.13843 4.8464 1.1285 4.85408C1.11553 4.86412 1.10187 4.88166 1.09392 4.90614C1.08596 4.93062 1.0867 4.95284 1.0913 4.96858C1.09482 4.98063 1.10275 4.99797 1.13024 5.01794L3.39813 6.66566C3.78367 6.94576 3.94499 7.44227 3.79773 7.89549L2.93147 10.5616C2.92097 10.5939 2.92475 10.6126 2.92898 10.6244C2.93452 10.6398 2.94698 10.6582 2.9678 10.6734C2.98862 10.6885 3.00999 10.6946 3.02638 10.6951C3.03893 10.6955 3.05787 10.6933 3.08536 10.6734L5.35325 9.02564C5.73878 8.74553 6.26084 8.74553 6.64637 9.02564L8.91426 10.6734C8.94175 10.6933 8.96069 10.6955 8.97324 10.6951C8.98963 10.6946 9.01099 10.6885 9.03182 10.6734C9.05264 10.6582 9.0651 10.6398 9.07064 10.6244C9.07487 10.6126 9.07864 10.5939 9.06814 10.5616L8.20189 7.89549C8.05463 7.44227 8.21595 6.94576 8.60149 6.66566L10.8694 5.01794C10.8969 4.99797 10.9048 4.98063 10.9083 4.96858C10.9129 4.95284 10.9137 4.93061 10.9057 4.90614C10.8977 4.88166 10.8841 4.86412 10.8711 4.85408C10.8612 4.8464 10.8446 4.83704 10.8106 4.83704H8.00733C7.53078 4.83704 7.10843 4.53018 6.96117 4.07696L6.09491 1.4109C6.08441 1.37858 6.07038 1.36568 6.06001 1.35861C6.04645 1.34937 6.02555 1.3418 5.99981 1.3418C5.97407 1.3418 5.95317 1.34937 5.93961 1.35861Z" fill="#616161"/>
</svg>
